<svg id="Layer_1" data-name="Layer 1" xmlns="http://www.w3.org/2000/svg" viewBox="0 0 71.36 99.77"><defs><style>.cls-1{fill:#bf4aa8;}</style></defs><path class="cls-1" d="M51.93,43.4,45.14,24c-3.11-8.87-7-11-14.06-11a22.09,22.09,0,0,0-11.77,3.33l-3.09-5.86C19.3,4.33,24.69.14,31.67.14c8.89,0,15,5.3,19,17.78l18.5,57.6c3.19,9.88,6.67,12.22,11.18,12.22a16.55,16.55,0,0,0,5.77-1.11l1.44,3.54c-2,5.17-6.28,9.74-11,9.74-5.9,0-10.9-3.2-15.26-20.12ZM16.85,96.82l32.71-67.1,5,14.16L31.65,99.43l-13.76-.91Z" transform="translate(-16.22 -0.14)"/></svg>