<?xml version="1.0" encoding="utf-8"?>
<!-- Generator: Adobe Illustrator 25.2.1, SVG Export Plug-In . SVG Version: 6.00 Build 0)  -->
<svg version="1.1" id="Layer_1" xmlns="http://www.w3.org/2000/svg" xmlns:xlink="http://www.w3.org/1999/xlink" x="0px" y="0px"
	 viewBox="0 0 105.2 39.3" style="enable-background:new 0 0 105.2 39.3;" xml:space="preserve">
<style type="text/css">
	.st0{fill:#0F4D92;}
	.st1{fill:#FFFFFF;}
	.st2{fill:none;stroke:#020202;stroke-width:0.3062;stroke-miterlimit:1.2247;}
	.st3{fill:#FFD700;}
	.st4{fill:#666666;}
</style>
<g transform="matrix(.18448 0 0 .18448 -36.894 -64.97)">
	<g>
		<g transform="matrix(.43912 0 0 -.43912 186.3 627.596)">
			<g>
				<path class="st0" d="M127.5,459c-12.4,0-7.9-23.2-12.4-44.5c-2.4-11.3,24.7,1.2,34.9,17.9C152.1,435.8,127.5,459,127.5,459
					 M115.1,379.1c0-30.8-8.4-49.1-28.2-80c-19.9-30.8-39-47.2-49.4-61.6c-10.4-14.4-7.8-18.4,6.5-19.7c14.3-1.3,22.7-9.7,36,5.7
					c13.3,15.3,51.5,63.3,63.5,93.3c12,30,16.1,45.2,20,64.9c3.9,19.7-57.2-2.6-57.2-2.6"/>
				<path class="st0" d="M356.8,481.7c12.2,9.5,23.6-30.7,23.6-39.1c0-8.4-45-20.5-69.6-27.4c-24.6-6.9-111.4-30.3-147.3-33.4
					c-29.1-2.5-50.3-9.1-63.8-12.4c0,0-11.7-4.9-27.3-16.4c-24.2-17.8-55.9-17-33.8,7.9c22.1,24.9,1.3,15.7,33.8,32.1
					c32.5,16.4,68.9,29.8,76.7,38.2c0,0,31.5,21.6,64.6,15.5C225.2,444.5,336.5,465.8,356.8,481.7"/>
			</g>
			<path d="M380,503.5c29.1,24-35.1-5.2-57.5,69.7c0,0-12.2,47.2-75.4,53.5c-44.9,4.5-85.4-22.9-93.2-28.8
				c-48.1-41.7-55.2-132.1,0-170c0,0,7.8,10.7,70.2,16.6c62.4,5.9,96.8,20.7,114.3,27.5C363.4,481.7,350.6,479.2,380,503.5"/>
			<path class="st1" d="M250.3,524.7c0-16.9-13.6-30.7-30.4-30.7s-30.4,13.7-30.4,30.7c0,16.9,13.6,30.6,30.4,30.6
				S250.3,541.6,250.3,524.7"/>
			<path d="M222.3,529.7c0-5.1-4.4-9.3-9.8-9.3c-5.4,0-9.8,4.2-9.8,9.3c0,5.1,4.4,9.3,9.8,9.3C217.9,539,222.3,534.8,222.3,529.7
				 M369.5,434.6c4.5,2.4,38.6-93.9,21.8-163.1c-12-49.5-18.9-70.1-47-95.6c-8.2-7.4-9.2-26.2-9.2-26.2
				c-67.1-9.4-90.5-5.2-132.3-1.3c-41.8,3.9-39.8,22.8-52.2,27.5c-15.6,6-24.7-14.6-65-2.6c-57.2,17-21.6,33.3-14.3,40.9
				c85.1,88,92.3,167.6,92.3,167.6C222.3,388.7,344.7,421.4,369.5,434.6"/>
			<path class="st2" d="M369.5,434.6c4.5,2.4,38.6-93.9,21.8-163.1c-12-49.5-18.9-70.1-47-95.6c-8.2-7.4-9.2-26.2-9.2-26.2
				c-67.1-9.4-90.5-5.2-132.3-1.3c-41.8,3.9-39.8,22.8-52.2,27.5c-15.6,6-24.7-14.6-65-2.6c-57.2,17-21.6,33.3-14.3,40.9
				c85.1,88,92.3,167.6,92.3,167.6C222.3,388.7,344.7,421.4,369.5,434.6z"/>
			<path class="st1" d="M240.1,396.2c-90.6-140,21.5-190.4,142.7-156.3c0,0,17.3,49.6,12.9,94.7c-8.2,83.3-29.5,99.7-29.5,99.7
				C343.3,423.9,240.1,396.2,240.1,396.2"/>
			<g>
				<path class="st3" d="M283.9,418.3l-43.8-6.4v34.9l34.4,6L283.9,418.3z M348,434.4l-33.8-10.5l-11,36l27.8,9.4L348,434.4z
					 M175.2,396.2l37.3,6.6l-6.7,36.7l-31.8-5.2L175.2,396.2z M374,446.6l-13-7.2l-13,37.3l7.6,4.9L374,446.6z M109,406.5l27.3,12
					l5.2-28.7l-35.1-10.7L109,406.5z M148.6,349.3H118l2,16.8l36.4,13.1L148.6,349.3z M127,300.1l-37-1l19.5,32h30.8L127,300.1z
					 M106.4,274.2l-30.1,3.9l-22.6-28.8l30.3-7.2L106.4,274.2z M91.1,374.5l-37.5-25.3l10.3,36.1l27.2,10.8V374.5z"/>
			</g>
		</g>
	</g>
	<g>
		<path class="st4" d="M456.8,433.8h-11.7v-24.4h-22.8v24.3h-11.7V377h11.7v23h22.8v-23h11.7V433.8z M464.5,412.3
			c0-4.2,0.8-7.9,2.4-11.2c1.6-3.3,3.9-5.8,6.9-7.6c3-1.8,6.6-2.7,10.6-2.7c5.7,0,10.3,1.7,13.9,5.2c3.6,3.5,5.6,8.2,6,14.2l0.1,2.9
			c0,6.5-1.8,11.7-5.4,15.6c-3.6,3.9-8.5,5.9-14.6,5.9c-6.1,0-11-2-14.6-5.9c-3.6-3.9-5.4-9.2-5.4-15.9L464.5,412.3z M475.8,413.1
			c0,4,0.8,7.1,2.3,9.2c1.5,2.1,3.7,3.2,6.5,3.2c2.7,0,4.9-1,6.4-3.1c1.5-2.1,2.3-5.5,2.3-10.1c0-3.9-0.8-7-2.3-9.1
			c-1.5-2.2-3.7-3.2-6.5-3.2c-2.8,0-4.9,1.1-6.4,3.2C476.6,405.3,475.8,408.6,475.8,413.1L475.8,413.1z M534.4,422.1
			c0-1.4-0.7-2.5-2.1-3.2c-1.4-0.8-3.5-1.5-6.6-2.1c-10-2.1-15.1-6.4-15.1-12.8c0-3.7,1.5-6.9,4.6-9.4c3.1-2.5,7.2-3.8,12.2-3.8
			c5.4,0,9.6,1.3,12.8,3.8c3.2,2.5,4.8,5.8,4.8,9.8H534c0-1.6-0.5-2.9-1.6-4c-1-1.1-2.7-1.6-4.9-1.6c-1.9,0-3.4,0.4-4.4,1.3
			c-1,0.9-1.6,2-1.6,3.3c0,1.2,0.6,2.3,1.8,3c1.2,0.8,3.2,1.4,6,2c2.8,0.5,5.2,1.2,7.1,1.9c6,2.2,8.9,6,8.9,11.4c0,3.9-1.7,7-5,9.4
			c-3.3,2.4-7.6,3.6-12.8,3.6c-3.5,0-6.7-0.6-9.4-1.9c-2.7-1.3-4.9-3-6.4-5.2c-1.6-2.2-2.3-4.6-2.3-7.1h10.7c0.1,2,0.8,3.5,2.2,4.6
			c1.4,1.1,3.2,1.6,5.5,1.6c2.2,0,3.8-0.4,4.9-1.2C533.9,424.5,534.4,423.4,534.4,422.1L534.4,422.1z M566.1,381.2v10.4h7.2v8.3
			h-7.2v21.1c0,1.6,0.3,2.7,0.9,3.4c0.6,0.7,1.7,1,3.4,1c1.2,0,2.4-0.1,3.3-0.3v8.5c-2.2,0.7-4.5,1-6.8,1c-7.9,0-11.9-4-12.1-12
			v-22.7h-6.2v-8.3h6.2v-10.4H566.1z M599,434.6c-6.2,0-11.2-1.9-15.1-5.7c-3.9-3.8-5.8-8.9-5.8-15.2v-1.1c0-4.2,0.8-8,2.5-11.4
			c1.6-3.4,4-5.9,6.9-7.7c3-1.8,6.5-2.7,10.3-2.7c5.8,0,10.3,1.8,13.6,5.5c3.3,3.6,5,8.8,5,15.5v4.6h-26.9c0.4,2.8,1.5,5,3.3,6.6
			c1.8,1.7,4.2,2.5,7,2.5c4.3,0,7.7-1.6,10.2-4.7l5.5,6.2c-1.7,2.4-4,4.3-6.9,5.6C605.7,433.9,602.5,434.6,599,434.6L599,434.6z
			 M597.8,399.9c-2.2,0-4.1,0.8-5.5,2.3c-1.4,1.5-2.3,3.7-2.7,6.5h15.7v-0.9c-0.1-2.5-0.7-4.4-2-5.8
			C602,400.6,600.1,399.9,597.8,399.9L597.8,399.9z M621.1,412.4c0-6.6,1.5-11.8,4.4-15.7c3-3.9,7-5.9,12.1-5.9
			c4.1,0,7.5,1.5,10.2,4.6v-21.5h11.3v59.9h-10.2l-0.5-4.5c-2.8,3.5-6.4,5.3-10.8,5.3c-5,0-9-2-12-5.9
			C622.6,424.8,621.1,419.3,621.1,412.4L621.1,412.4z M632.4,413.2c0,4,0.7,7,2.1,9.1c1.4,2.1,3.4,3.2,6,3.2c3.5,0,5.9-1.5,7.4-4.4
			v-16.7c-1.4-2.9-3.8-4.4-7.3-4.4C635.1,400,632.4,404.4,632.4,413.2L632.4,413.2z M726,413.1c0,6.8-1.4,12-4.3,15.8
			c-2.9,3.8-6.9,5.7-12.1,5.7c-4.6,0-8.2-1.8-11-5.3l-0.5,4.5h-10.1v-59.9h11.3v21.5c2.6-3,6-4.6,10.3-4.6c5.2,0,9.2,1.9,12.1,5.7
			c2.9,3.8,4.4,9.1,4.4,16L726,413.1z M714.7,412.3c0-4.3-0.7-7.4-2-9.3c-1.4-2-3.4-3-6-3c-3.6,0-6.1,1.5-7.4,4.4V421
			c1.4,3,3.9,4.4,7.5,4.4c3.6,0,6-1.8,7.2-5.4C714.4,418.4,714.7,415.8,714.7,412.3L714.7,412.3z M748.6,417.8l7.8-26.3h12.1
			l-17,48.8l-0.9,2.2c-2.5,5.5-6.7,8.3-12.5,8.3c-1.6,0-3.3-0.2-5-0.7v-8.5l1.7,0c2.1,0,3.7-0.3,4.8-1c1.1-0.6,1.9-1.7,2.5-3.2
			l1.3-3.5l-14.8-42.3h12.1L748.6,417.8z"/>
		<path class="st4" d="M418.6,476v10.4h7.2v8.3h-7.2v21.1c0,1.6,0.3,2.7,0.9,3.4c0.6,0.7,1.7,1,3.4,1c1.2,0,2.4-0.1,3.3-0.3v8.5
			c-2.2,0.7-4.5,1-6.8,1c-7.9,0-11.9-4-12.1-12v-22.7h-6.2v-8.3h6.2V476H418.6z M443.1,491c3-3.6,6.7-5.4,11.3-5.4
			c9.2,0,13.8,5.3,13.9,16v27h-11.3v-26.7c0-2.4-0.5-4.2-1.6-5.3c-1-1.2-2.8-1.8-5.2-1.8c-3.3,0-5.7,1.3-7.2,3.8v30h-11.3v-59.9
			h11.3L443.1,491z M496.4,529.4c-6.2,0-11.2-1.9-15.1-5.7c-3.9-3.8-5.8-8.9-5.8-15.2v-1.1c0-4.2,0.8-8,2.5-11.4
			c1.6-3.4,4-5.9,6.9-7.7c3-1.8,6.5-2.7,10.3-2.7c5.8,0,10.3,1.8,13.6,5.5c3.3,3.6,5,8.8,5,15.5v4.6h-26.9c0.4,2.8,1.5,5,3.3,6.6
			c1.8,1.7,4.2,2.5,7,2.5c4.3,0,7.7-1.6,10.2-4.7l5.5,6.2c-1.7,2.4-4,4.3-6.9,5.6C503.1,528.7,499.9,529.4,496.4,529.4L496.4,529.4z
			 M495.1,494.7c-2.2,0-4.1,0.8-5.5,2.3c-1.4,1.5-2.3,3.7-2.7,6.5h15.7v-0.9c-0.1-2.5-0.7-4.4-2-5.8
			C499.3,495.4,497.5,494.7,495.1,494.7z"/>
		<path d="M618.6,503.3c0,8.9-1.6,16.8-4.7,23.5c-3.2,6.7-7.7,11.9-13.6,15.6c-5.9,3.7-12.6,5.5-20.2,5.5c-7.5,0-14.3-1.8-20.2-5.4
			c-5.9-3.6-10.5-8.8-13.7-15.5c-3.2-6.7-4.9-14.5-4.9-23.2v-4.5c0-8.9,1.6-16.8,4.8-23.6c3.2-6.8,7.8-12.1,13.7-15.7
			c5.9-3.7,12.7-5.5,20.2-5.5c7.6,0,14.3,1.8,20.2,5.5c5.9,3.6,10.5,8.8,13.7,15.7c3.2,6.8,4.9,14.6,4.9,23.5V503.3z M599.6,499.2
			c0-9.5-1.7-16.8-5.1-21.7c-3.4-5-8.3-7.4-14.6-7.4c-6.3,0-11.1,2.5-14.5,7.4c-3.4,4.9-5.1,12-5.2,21.5v4.4
			c0,9.3,1.7,16.5,5.1,21.6c3.4,5.1,8.3,7.7,14.7,7.7c6.3,0,11.1-2.5,14.5-7.4c3.4-5,5.1-12.1,5.1-21.6L599.6,499.2z M700.3,516.4
			c-0.7,9.8-4.3,17.5-10.9,23.1c-6.5,5.6-15.1,8.4-25.7,8.4c-11.7,0-20.8-3.9-27.5-11.7c-6.7-7.9-10-18.6-10-32.3v-5.6
			c0-8.7,1.5-16.4,4.6-23.1c3.1-6.7,7.5-11.8,13.2-15.3c5.7-3.6,12.4-5.4,20-5.4c10.5,0,18.9,2.8,25.3,8.4
			c6.4,5.6,10.1,13.5,11.1,23.7h-18.7c-0.5-5.9-2.1-10.1-4.9-12.7c-2.8-2.7-7.1-4-12.8-4c-6.2,0-10.9,2.2-14,6.7
			c-3.1,4.5-4.7,11.4-4.7,20.8v6.9c0,9.8,1.5,17,4.4,21.5c3,4.5,7.7,6.8,14.1,6.8c5.8,0,10.1-1.3,12.9-3.9c2.9-2.7,4.5-6.8,4.9-12.3
			H700.3z M766,509.6h-36v37.1h-18.7v-90.9h59.2V471H730v23.5h36L766,509.6z"/>
	</g>
</g>
</svg>
